<?xml version="1.0" encoding="UTF-8"?>
<svg version="1.1" xmlns="http://www.w3.org/2000/svg" width="617" height="277">
<path d="M0 0 C1.40759309 -0.00322643 2.81518587 -0.00659145 4.22277832 -0.01008606 C7.15064267 -0.01601962 10.07847774 -0.0179318 13.00634766 -0.01733398 C16.72089617 -0.01723226 20.43525401 -0.03092101 24.14975739 -0.04810619 C27.0497521 -0.05932698 29.949702 -0.06125019 32.84971619 -0.06072426 C34.87284775 -0.06244501 36.89596534 -0.0732104 38.91906738 -0.08427429 C46.16904677 -0.0665491 53.04999774 0.44753765 60.1895752 1.73246765 C63.82986308 2.30290654 67.29279292 2.23866023 70.96875 2.16796875 C71.29875 2.49796875 71.62875 2.82796875 71.96875 3.16796875 C73.061875 3.16796875 74.155 3.16796875 75.28125 3.16796875 C78.31052341 3.16796875 80.14457382 3.38497535 82.96875 4.16796875 C88.04817174 5.43320653 92.68870372 6.43874035 97.96875 6.16796875 C97.96875 6.82796875 97.96875 7.48796875 97.96875 8.16796875 C98.505 7.96171875 99.04125 7.75546875 99.59375 7.54296875 C102.82105016 7.03339504 104.89021637 8.10232249 107.96875 9.16796875 C109.91855813 9.39171722 111.86851245 9.61466307 113.8203125 9.8203125 C116.99726898 10.33440182 119.92310932 11.40818466 122.94921875 12.48046875 C125.02234598 13.23517396 125.02234598 13.23517396 127.46875 13.66796875 C131.41934189 14.45808713 135.1626939 15.86215113 138.96875 17.16796875 C140.53073458 17.6903458 142.09322364 18.21121716 143.65625 18.73046875 C144.39230469 18.97796875 145.12835938 19.22546875 145.88671875 19.48046875 C147.73835578 20.09189111 149.60285815 20.6640373 151.46875 21.23046875 C153.96875 22.16796875 153.96875 22.16796875 154.96875 24.16796875 C156.6314283 24.52065809 158.29940717 24.84830736 159.96875 25.16796875 C161.99089937 25.86698335 163.97901597 26.63380484 165.97265625 27.41015625 C167.73996887 28.08111251 169.54060245 28.66281119 171.34375 29.23046875 C173.96875 30.16796875 173.96875 30.16796875 175.96875 32.16796875 C178.89077223 34.01345647 181.85548161 35.66898767 184.96875 37.16796875 C184.96875 37.82796875 184.96875 38.48796875 184.96875 39.16796875 C185.83084579 39.00498291 186.69294159 38.84199707 187.5811615 38.67407227 C190.84602033 38.18630448 193.87279093 38.0539489 197.17016602 38.0703125 C198.37484024 38.07361572 199.57951447 38.07691895 200.82069397 38.08032227 C202.10834152 38.08862061 203.39598907 38.09691895 204.72265625 38.10546875 C206.06973596 38.10987973 207.41681774 38.1136949 208.76390076 38.11694336 C213.01971396 38.12832384 217.27547172 38.14756943 221.53125 38.16796875 C226.46912696 38.19161625 231.40697211 38.2119887 236.3448925 38.22390747 C238.31519696 38.23036241 240.28547831 38.24293759 242.25575256 38.25561523 C244.05803566 38.26057007 244.05803566 38.26057007 245.89672852 38.265625 C246.95118668 38.27086182 248.00564484 38.27609863 249.09205627 38.28149414 C252.34742126 38.22855788 252.34742126 38.22855788 256.96875 37.16796875 C261.58875 37.16796875 266.20875 37.16796875 270.96875 37.16796875 C270.96875 77.75796875 270.96875 118.34796875 270.96875 160.16796875 C228.78125 160.41796875 228.78125 160.41796875 215.47192383 160.46582031 C211.52685351 160.49904995 211.52685351 160.49904995 207.58183289 160.53753662 C205.82793135 160.55212824 204.0739542 160.55892124 202.31999207 160.55950928 C199.65919339 160.56192772 196.99968607 160.58927039 194.33911133 160.62207031 C193.56079106 160.61704624 192.7824708 160.61202217 191.98056507 160.60684586 C186.99009021 160.70315566 184.53619955 161.70731574 180.96875 165.16796875 C176.53442435 167.78242665 171.89944457 169.68876038 166.96875 171.16796875 C166.96875 171.82796875 166.96875 172.48796875 166.96875 173.16796875 C166.4325 173.27109375 165.89625 173.37421875 165.34375 173.48046875 C162.82273137 174.13264166 162.82273137 174.13264166 160.09375 175.60546875 C154.79122556 178.25673097 147.95128121 181.16796875 141.96875 181.16796875 C141.63875 181.82796875 141.30875 182.48796875 140.96875 183.16796875 C138.38671875 183.94921875 138.38671875 183.94921875 135.15625 184.66796875 C131.45375506 185.49776055 128.31240455 186.38223676 124.96875 188.16796875 C120.375 189.37109375 120.375 189.37109375 117.96875 188.16796875 C117.63875 188.82796875 117.30875 189.48796875 116.96875 190.16796875 C115.03515625 190.73046875 115.03515625 190.73046875 112.53125 191.16796875 C111.62632812 191.33167969 110.72140625 191.49539062 109.7890625 191.6640625 C108.85835938 191.83035156 107.92765625 191.99664062 106.96875 192.16796875 C105.28068551 192.51943506 103.5931637 192.87351993 101.90625 193.23046875 C98.02630944 194.01129922 94.18568218 194.49869375 90.25 194.88671875 C86.94478061 195.29421155 83.71801239 196.01041358 80.4609375 196.6953125 C77.3115636 197.29260755 74.16730761 197.6334128 70.9765625 197.921875 C68.97906112 198.11848391 68.97906112 198.11848391 67.13012695 198.66577148 C64.83775152 199.19840633 62.7292828 199.35853208 60.37890625 199.44921875 C59.07856445 199.50529297 59.07856445 199.50529297 57.75195312 199.5625 C56.85412109 199.59730469 55.95628906 199.63210937 55.03125 199.66796875 C53.25115777 199.73727299 51.47119793 199.81008332 49.69140625 199.88671875 C48.90515869 199.91701172 48.11891113 199.94730469 47.30883789 199.97851562 C44.96543359 200.11416562 44.96543359 200.11416562 42.70497131 200.67172241 C39.69704671 201.21724538 36.90599938 201.29507648 33.84912109 201.29736328 C32.63791595 201.30051544 31.42671082 201.3036676 30.17880249 201.30691528 C28.87971954 201.30489105 27.5806366 201.30286682 26.2421875 201.30078125 C24.88888532 201.30145535 23.53558326 201.30242627 22.18228149 201.30368042 C19.35295452 201.30515136 16.52365922 201.30302158 13.69433594 201.29833984 C10.06830525 201.29263197 6.44234842 201.29593205 2.81632042 201.30191231 C0.02480512 201.30552489 -2.76669264 201.30437631 -5.55820847 201.30178452 C-7.54520465 201.30079377 -9.53220152 201.30382877 -11.51919556 201.30691528 C-12.72409637 201.30376312 -13.92899719 201.30061096 -15.17041016 201.29736328 C-16.23232574 201.29656769 -17.29424133 201.29577209 -18.38833618 201.29495239 C-21.03125 201.16796875 -21.03125 201.16796875 -24.03125 200.16796875 C-27.03340733 200.09954351 -30.02132572 200.17027603 -33.0234375 200.23046875 C-35.85359285 200.17166033 -38.2728855 199.75595867 -41.03125 199.16796875 C-43.02904638 198.97669037 -45.02941779 198.81095677 -47.03125 198.66796875 C-50.78524006 198.3998266 -54.35159515 197.95296179 -58.03125 197.16796875 C-59.18625 197.00296875 -60.34125 196.83796875 -61.53125 196.66796875 C-63.51811879 196.38413035 -65.50264765 196.0712718 -67.46875 195.66796875 C-70.23676629 195.09231743 -70.23676629 195.09231743 -73.90625 194.73046875 C-77.76520485 194.26423815 -81.30168796 193.28683736 -85.03125 192.16796875 C-90.56997072 190.72510873 -96.11726316 189.34516388 -101.71875 188.16796875 C-105.54177834 187.33837851 -109.18455251 186.17750198 -112.87890625 184.8984375 C-115.90054963 183.87294329 -118.95626142 183.01849751 -122.03125 182.16796875 C-122.03125 181.50796875 -122.03125 180.84796875 -122.03125 180.16796875 C-123.8875 179.98234375 -123.8875 179.98234375 -125.78125 179.79296875 C-128.98294934 179.38995764 -131.20466658 178.75792193 -134.03125 177.16796875 C-136.68144487 176.12021729 -139.35532152 175.14914253 -142.03125 174.16796875 C-142.03125 173.50796875 -142.03125 172.84796875 -142.03125 172.16796875 C-144.01125 171.83796875 -145.99125 171.50796875 -148.03125 171.16796875 C-148.03125 170.50796875 -148.03125 169.84796875 -148.03125 169.16796875 C-149.31 168.85859375 -150.58875 168.54921875 -151.90625 168.23046875 C-154.13226675 167.69191631 -155.97864999 167.19426875 -158.03125 166.16796875 C-158.03125 165.50796875 -158.03125 164.84796875 -158.03125 164.16796875 C-159.68125 163.83796875 -161.33125 163.50796875 -163.03125 163.16796875 C-163.03125 162.50796875 -163.03125 161.84796875 -163.03125 161.16796875 C-164.02125 161.49796875 -165.01125 161.82796875 -166.03125 162.16796875 C-168.34646155 162.25794938 -170.66424526 162.28553769 -172.98120117 162.28149414 C-174.03524391 162.28171318 -174.03524391 162.28171318 -175.11058044 162.28193665 C-177.43182468 162.28124032 -179.75298854 162.27346101 -182.07421875 162.265625 C-183.6841884 162.26375983 -185.29415861 162.26233639 -186.90412903 162.26133728 C-191.14067147 162.25751993 -195.3771796 162.2476963 -199.6137085 162.2366333 C-203.93712907 162.22640239 -208.26055519 162.22183606 -212.58398438 162.21679688 C-221.06642199 162.20607334 -229.54883173 162.18900628 -238.03125 162.16796875 C-238.18732136 150.85580605 -238.33542433 139.54356693 -238.4742136 128.23117828 C-238.53893828 122.97453724 -238.60609114 117.71795407 -238.67944336 112.46142578 C-239.01894939 87.99877535 -239.13656743 63.61306049 -238.03125 39.16796875 C-236.66061905 39.18129242 -236.66061905 39.18129242 -235.26229858 39.19488525 C-226.64055884 39.27511614 -218.01894493 39.33597638 -209.39691734 39.37521744 C-204.96448178 39.39607014 -200.53235533 39.42434508 -196.10009766 39.46972656 C-191.82069496 39.51326752 -187.54158912 39.53712329 -183.26198196 39.54747772 C-181.63131667 39.55485434 -180.00066716 39.56925935 -178.37012863 39.59088898 C-176.08152223 39.62003384 -173.79413396 39.62392031 -171.50537109 39.62207031 C-170.20409271 39.63095276 -168.90281433 39.63983521 -167.56210327 39.64898682 C-163.41810761 39.08443864 -161.32971381 37.6733809 -158.03125 35.16796875 C-156.03944591 34.15174217 -154.03972365 33.15083883 -152.03125 32.16796875 C-150.36108484 31.17382282 -148.69404327 30.17439625 -147.03125 29.16796875 C-143.76515476 27.36598517 -140.33318997 26.12509028 -136.8359375 24.8515625 C-134.97041693 24.17979626 -134.97041693 24.17979626 -133.03125 23.16796875 C-132.37125 23.49796875 -131.71125 23.82796875 -131.03125 24.16796875 C-130.70125 23.50796875 -130.37125 22.84796875 -130.03125 22.16796875 C-128.05729477 21.42773554 -126.04853138 20.78035774 -124.03125 20.16796875 C-122.59240594 19.69285326 -121.1549874 19.21340672 -119.71875 18.73046875 C-118.9453125 18.47394531 -118.171875 18.21742187 -117.375 17.953125 C-115.87180138 17.44955346 -114.37147189 16.93728546 -112.875 16.4140625 C-106.7238075 14.28566075 -100.44239049 12.32817514 -94.03125 11.16796875 C-93.04125 11.66296875 -93.04125 11.66296875 -92.03125 12.16796875 C-91.70125 11.50796875 -91.37125 10.84796875 -91.03125 10.16796875 C-87.74710695 9.21729576 -86.33431592 9.06694678 -83.03125 10.16796875 C-83.03125 9.50796875 -83.03125 8.84796875 -83.03125 8.16796875 C-77.40625 7.04296875 -77.40625 7.04296875 -74.03125 8.16796875 C-73.70125 7.50796875 -73.37125 6.84796875 -73.03125 6.16796875 C-71.855625 6.19890625 -71.855625 6.19890625 -70.65625 6.23046875 C-68.05010039 6.35480938 -68.05010039 6.35480938 -66.03125 5.16796875 C-64.41042666 4.9646599 -62.78416533 4.80322581 -61.15625 4.66796875 C-58.65122476 4.45859351 -56.31702904 4.2422713 -53.8828125 3.609375 C-51.39592527 3.01650948 -49.48111633 3.55550217 -47.03125 4.16796875 C-46.70125 3.50796875 -46.37125 2.84796875 -46.03125 2.16796875 C-44.88269531 2.10738281 -43.73414063 2.04679687 -42.55078125 1.984375 C-40.98176664 1.89981733 -39.41275646 1.8151774 -37.84375 1.73046875 C-37.09416016 1.69115234 -36.34457031 1.65183594 -35.57226562 1.61132812 C-31.0877623 1.36740117 -26.61968738 1.04668601 -22.14526367 0.65869141 C-14.7588492 0.08840351 -7.40566685 0.00627224 0 0 Z M108.36329269 37.62920284 C104.85313383 38.4189795 101.36014204 38.30161973 97.78106689 38.28822327 C96.94868807 38.28907769 96.11630924 38.28993212 95.25870681 38.29081243 C92.46574368 38.29246134 89.67284042 38.28695546 86.87988281 38.28149414 C84.87931825 38.28121212 82.87875359 38.2813703 80.87818909 38.28193665 C75.44263985 38.28222402 70.00711261 38.27633687 64.57156849 38.26936269 C58.89274519 38.26311928 53.21392141 38.26252457 47.53509521 38.26133728 C36.77939429 38.25822689 26.0237035 38.25001741 15.26800704 38.23998779 C3.02389225 38.22881762 -9.22022302 38.22331392 -21.46434164 38.21829236 C-46.65331672 38.20783457 -71.84228279 38.19024075 -97.03125 38.16796875 C-97.36125 38.82796875 -97.69125 39.48796875 -98.03125 40.16796875 C-69.92016143 40.19130417 -41.80907431 40.2089511 -13.69797802 40.21978092 C-0.64622359 40.22494251 12.40552482 40.2319826 25.45727539 40.2434082 C36.82997237 40.25335922 48.20266499 40.25982318 59.5753662 40.26205724 C65.59999644 40.26336364 71.62461423 40.26644501 77.64924049 40.27369881 C83.31507004 40.28046559 88.98088196 40.28258435 94.64671516 40.28107643 C96.73049261 40.28135246 98.81427062 40.28335369 100.89804459 40.28717422 C103.73464872 40.29212171 106.57118557 40.29096308 109.40779114 40.28822327 C110.23949745 40.29113611 111.07120375 40.29404895 111.92811328 40.29705006 C115.20226917 40.28845418 117.84006539 40.21086362 120.96875 39.16796875 C120.63875 38.50796875 120.30875 37.84796875 119.96875 37.16796875 C119.06125 37.35359375 118.15375 37.53921875 117.21875 37.73046875 C114.11985796 38.14762729 111.20017396 36.81419122 108.36329269 37.62920284 Z M-180.03125 59.16796875 C-182.71203364 64.41241441 -185.1652723 69.57003564 -187.03125 75.16796875 C-188.67240339 80.09142891 -190.72121509 84.61488336 -193.12890625 89.203125 C-194.04152823 91.19034949 -194.51425168 93.04787487 -195.03125 95.16796875 C-195.67563717 96.84337539 -196.34371699 98.50980091 -197.03125 100.16796875 C-197.36125 100.99296875 -197.69125 101.81796875 -198.03125 102.66796875 C-199.03125 105.16796875 -200.03125 107.66796875 -201.03125 110.16796875 C-201.381875 111.04582031 -201.7325 111.92367187 -202.09375 112.828125 C-202.73287591 114.42327676 -203.37901014 116.0156341 -204.03125 117.60546875 C-205.0813905 120.18206145 -205.0813905 120.18206145 -205.84375 122.98046875 C-207.82350232 128.29454077 -210.26414032 132.98989563 -215.03125 136.16796875 C-210.48477102 137.34125365 -205.70097706 137.70925342 -201.03125 137.16796875 C-200.04125 136.17796875 -200.04125 136.17796875 -199.03125 135.16796875 C-199.69125 134.50796875 -200.35125 133.84796875 -201.03125 133.16796875 C-200.598125 131.89953125 -200.598125 131.89953125 -200.15625 130.60546875 C-199.42633838 128.37518324 -198.75557328 126.12433544 -198.15625 123.85546875 C-196.82527088 119.49281496 -194.88371577 115.33601674 -193.03125 111.16796875 C-185.77125 111.16796875 -178.51125 111.16796875 -171.03125 111.16796875 C-165.79728774 122.46230837 -165.79728774 122.46230837 -164.03125 128.16796875 C-163.66 129.05484375 -163.28875 129.94171875 -162.90625 130.85546875 C-162.03125 133.16796875 -162.03125 133.16796875 -162.03125 136.16796875 C-158.72130287 137.82294231 -155.04002 137.2688121 -151.40625 137.23046875 C-150.60445313 137.22595703 -149.80265625 137.22144531 -148.9765625 137.21679688 C-146.99475994 137.20500043 -145.01299567 137.1870648 -143.03125 137.16796875 C-143.66804688 136.57371094 -144.30484375 135.97945313 -144.9609375 135.3671875 C-147.39290763 132.78379282 -147.98959655 130.51614056 -149.03125 127.16796875 C-149.69125 126.83796875 -150.35125 126.50796875 -151.03125 126.16796875 C-151.03125 124.84796875 -151.03125 123.52796875 -151.03125 122.16796875 C-151.69125 121.50796875 -152.35125 120.84796875 -153.03125 120.16796875 C-153.75240049 118.41861541 -154.41188679 116.64339614 -155.03125 114.85546875 C-157.54236134 107.66545074 -160.48555475 100.71018703 -163.53125 93.73046875 C-164.59114631 91.21321501 -165.55385522 88.73461952 -166.46875 86.16796875 C-167.47907495 83.40962126 -168.66017005 80.94564173 -170.15625 78.41796875 C-171.73838633 75.6755991 -172.35945673 74.12719034 -173.03125 71.16796875 C-173.49404327 69.64207324 -173.97375689 68.12122485 -174.46875 66.60546875 C-174.71496094 65.84105469 -174.96117187 65.07664062 -175.21484375 64.2890625 C-176.03698882 61.92232986 -176.03698882 61.92232986 -178.03125 59.16796875 C-178.69125 59.16796875 -179.35125 59.16796875 -180.03125 59.16796875 Z M-150.03125 69.16796875 C-148.54625 70.15796875 -148.54625 70.15796875 -147.03125 71.16796875 C-146.37125 70.50796875 -145.71125 69.84796875 -145.03125 69.16796875 C-146.68125 69.16796875 -148.33125 69.16796875 -150.03125 69.16796875 Z M-145.03125 70.16796875 C-144.886875 71.17859375 -144.7425 72.18921875 -144.59375 73.23046875 C-144.408125 74.52984375 -144.2225 75.82921875 -144.03125 77.16796875 C-143.85376221 78.24844482 -143.67627441 79.3289209 -143.4934082 80.44213867 C-143.01894384 84.26717861 -142.98201664 87.8673155 -143.07421875 91.71875 C-143.09661227 93.15428298 -143.11806709 94.58983086 -143.13867188 96.02539062 C-143.17561169 98.25034182 -143.21859053 100.47450518 -143.27807617 102.69897461 C-143.56857563 114.13754916 -142.85056457 124.05293151 -134.6640625 132.8359375 C-132.01787473 134.99466963 -129.34014313 135.52941043 -126.03125 136.16796875 C-124.360625 136.72484375 -124.360625 136.72484375 -122.65625 137.29296875 C-116.75076184 138.71843141 -110.93518157 138.69156399 -105.03125 137.16796875 C-105.03125 136.50796875 -105.03125 135.84796875 -105.03125 135.16796875 C-102.06125 134.67296875 -102.06125 134.67296875 -99.03125 134.16796875 C-99.03125 133.17796875 -99.03125 132.18796875 -99.03125 131.16796875 C-98.45375 131.10609375 -97.87625 131.04421875 -97.28125 130.98046875 C-94.07381673 129.82222896 -92.91192996 127.95656317 -91.03125 125.16796875 C-89.74966194 121.67272859 -89.54711716 117.84352229 -89.03125 114.16796875 C-88.77807007 113.09929565 -88.77807007 113.09929565 -88.51977539 112.0090332 C-87.84026022 108.0572501 -87.79572008 104.15182795 -87.71484375 100.1484375 C-87.69406265 99.28986649 -87.67328156 98.43129547 -87.65187073 97.54670715 C-87.58672477 94.81637221 -87.52765346 92.0859448 -87.46875 89.35546875 C-87.4255315 87.49933957 -87.38191616 85.64321959 -87.33789062 83.78710938 C-87.23107939 79.2474895 -87.12971435 74.70777703 -87.03125 70.16796875 C-90.33125 69.83796875 -93.63125 69.50796875 -97.03125 69.16796875 C-97.69125 70.15796875 -98.35125 71.14796875 -99.03125 72.16796875 C-98.70560562 72.74163177 -98.37996124 73.3152948 -98.04444885 73.90634155 C-96.97172391 76.30084081 -96.79289922 77.75475524 -96.82006836 80.35400391 C-96.82344711 81.16809723 -96.82682587 81.98219055 -96.83030701 82.82095337 C-96.84376663 83.69085907 -96.85722626 84.56076477 -96.87109375 85.45703125 C-96.87629532 86.35666595 -96.88149689 87.25630066 -96.88685608 88.18319702 C-96.90465148 91.05328608 -96.93583109 93.92301641 -96.96875 96.79296875 C-96.99634941 99.67002674 -97.0210496 102.54703509 -97.03993225 105.42416382 C-97.05220888 107.21378107 -97.06983138 109.00337102 -97.09324646 110.7928772 C-97.26633827 115.11528343 -97.26633827 115.11528343 -96.03125 119.16796875 C-97.02125 119.66296875 -97.02125 119.66296875 -98.03125 120.16796875 C-97.70125 120.82796875 -97.37125 121.48796875 -97.03125 122.16796875 C-97.69125 122.16796875 -98.35125 122.16796875 -99.03125 122.16796875 C-99.216875 122.88984375 -99.4025 123.61171875 -99.59375 124.35546875 C-101.58380313 128.24905096 -104.19084613 130.15854531 -108.03125 132.16796875 C-112.79051785 133.39881388 -115.66304118 133.41110301 -120.03125 131.16796875 C-120.753125 130.89984375 -121.475 130.63171875 -122.21875 130.35546875 C-124.6999826 128.7298336 -125.15710259 126.93610223 -126.03125 124.16796875 C-126.69125 124.16796875 -127.35125 124.16796875 -128.03125 124.16796875 C-127.70125 123.17796875 -127.37125 122.18796875 -127.03125 121.16796875 C-127.36125 120.17796875 -127.69125 119.18796875 -128.03125 118.16796875 C-128.1589872 116.73775346 -128.23773399 115.30283269 -128.28417969 113.86767578 C-128.31380798 113.00312775 -128.34343628 112.13857971 -128.3739624 111.24783325 C-128.40008606 110.31655609 -128.42620972 109.38527893 -128.453125 108.42578125 C-128.49496918 106.9849971 -128.49496918 106.9849971 -128.53765869 105.5151062 C-128.59404798 103.48263737 -128.64766633 101.45009006 -128.69873047 99.41748047 C-128.78075896 96.31156137 -128.88432945 93.20681454 -128.98828125 90.1015625 C-129.04040161 88.12633696 -129.09122556 86.15107671 -129.140625 84.17578125 C-129.17484558 83.24855255 -129.20906616 82.32132385 -129.24432373 81.36599731 C-129.34076359 76.43141502 -129.2445842 73.20197464 -126.03125 69.16796875 C-128.26034871 69.1408214 -130.48954367 69.12150621 -132.71875 69.10546875 C-133.96011719 69.09386719 -135.20148438 69.08226563 -136.48046875 69.0703125 C-139.49360454 69.15318202 -142.11400339 69.45957426 -145.03125 70.16796875 Z M12.96875 69.16796875 C10.72252678 69.42858028 8.47671664 69.60980558 6.22265625 69.7890625 C-0.69212073 70.95151201 -7.06828486 76.53586795 -12.03125 81.16796875 C-13.78955563 84.0178904 -13.78955563 84.0178904 -15.03125 87.16796875 C-15.5675 88.34359375 -16.10375 89.51921875 -16.65625 90.73046875 C-19.33787341 97.43452728 -20.37157763 105.05763069 -18.09375 112.04296875 C-17.5678125 113.09484375 -17.5678125 113.09484375 -17.03125 114.16796875 C-16.67266484 115.49473383 -16.3293924 116.82632796 -16.03125 118.16796875 C-15.37125 118.16796875 -14.71125 118.16796875 -14.03125 118.16796875 C-13.969375 118.86921875 -13.9075 119.57046875 -13.84375 120.29296875 C-12.02775304 126.71880415 -6.59889006 130.8943452 -1.03125 134.16796875 C3.24520288 135.94982412 7.38760241 136.5849136 11.96875 137.16796875 C12.7525 137.37421875 13.53625 137.58046875 14.34375 137.79296875 C20.69893066 138.7008517 26.93750717 137.09283348 32.96875 135.16796875 C32.96875 134.50796875 32.96875 133.84796875 32.96875 133.16796875 C35.27875 132.50796875 37.58875 131.84796875 39.96875 131.16796875 C39.96875 130.50796875 39.96875 129.84796875 39.96875 129.16796875 C40.566875 128.92046875 41.165 128.67296875 41.78125 128.41796875 C46.70279474 125.60565747 48.63834716 120.10643946 50.96875 115.16796875 C51.38125 114.32234375 51.79375 113.47671875 52.21875 112.60546875 C53.20243676 109.40848678 53.02929045 106.49769344 52.96875 103.16796875 C53.25105469 102.21664062 53.25105469 102.21664062 53.5390625 101.24609375 C54.91947453 94.56991919 49.77985745 86.07557526 46.96875 80.16796875 C46.30875 80.16796875 45.64875 80.16796875 44.96875 80.16796875 C44.47375 78.68296875 44.47375 78.68296875 43.96875 77.16796875 C42.64571283 76.79586455 41.31137065 76.46166702 39.96875 76.16796875 C39.47375 75.17796875 39.47375 75.17796875 38.96875 74.16796875 C34.8152967 71.09045764 30.757267 70.3045512 25.78125 69.48046875 C24.69553711 69.28614258 24.69553711 69.28614258 23.58789062 69.08789062 C18.21102369 68.11729722 18.21102369 68.11729722 12.96875 69.16796875 Z M186.96875 69.16796875 C187.608125 69.43609375 188.2475 69.70421875 188.90625 69.98046875 C190.96875 71.16796875 190.96875 71.16796875 191.96875 74.16796875 C192.02655745 77.51357511 191.99061061 80.84282139 191.9296875 84.1875 C191.89802871 87.02096203 191.8687884 89.70144846 192.46435547 92.48095703 C193.07079808 95.71159951 193.09846972 98.75578651 193.1015625 102.04296875 C193.10285156 103.3578125 193.10414063 104.67265625 193.10546875 106.02734375 C193.10337402 106.70732422 193.1012793 107.38730469 193.09912109 108.08789062 C193.09376662 110.16153274 193.09908077 112.2349583 193.10546875 114.30859375 C193.10417969 115.6234375 193.10289062 116.93828125 193.1015625 118.29296875 C193.10043457 119.49179688 193.09930664 120.690625 193.09814453 121.92578125 C192.92856437 126.1748841 192.0316761 130.06811093 190.96875 134.16796875 C196.21260089 135.91591905 200.44197267 136.36189076 205.96875 136.16796875 C205.64132812 134.89050781 205.31390625 133.61304688 204.9765625 132.296875 C203.83986014 127.18171437 203.73847336 122.32476067 203.84375 117.10546875 C203.85277344 116.23986328 203.86179687 115.37425781 203.87109375 114.48242188 C203.89435277 112.37748096 203.93020992 110.27268533 203.96875 108.16796875 C209.6328125 107.88671875 209.6328125 107.88671875 212.65625 110.41796875 C215.5725143 113.88595873 218.05542063 117.04695165 219.96875 121.16796875 C220.62875 121.16796875 221.28875 121.16796875 221.96875 121.16796875 C221.96875 121.82796875 221.96875 122.48796875 221.96875 123.16796875 C222.62875 123.16796875 223.28875 123.16796875 223.96875 123.16796875 C223.96875 124.15796875 223.96875 125.14796875 223.96875 126.16796875 C224.62875 126.16796875 225.28875 126.16796875 225.96875 126.16796875 C226.154375 126.91046875 226.34 127.65296875 226.53125 128.41796875 C228.48526252 132.15607965 231.15881793 133.66934576 234.96875 135.16796875 C239.75393502 136.35735 244.15988611 136.24996312 248.96875 135.16796875 C248.411875 134.94109375 247.855 134.71421875 247.28125 134.48046875 C244.32687928 132.80366374 242.33772657 130.59472523 239.96875 128.16796875 C239.123125 127.54921875 238.2775 126.93046875 237.40625 126.29296875 C234.90254043 124.11024759 233.55465846 121.96059691 232.0078125 119.04296875 C229.81590107 115.08763985 227.16676314 111.36598189 223.96875 108.16796875 C223.30875 107.17796875 222.64875 106.18796875 221.96875 105.16796875 C223.96875 102.16796875 223.96875 102.16796875 225.96875 100.16796875 C231.89483788 93.47164663 232.96875 89.08451939 232.96875 80.16796875 C232.30875 80.16796875 231.64875 80.16796875 230.96875 80.16796875 C230.47375 77.69296875 230.47375 77.69296875 229.96875 75.16796875 C229.30875 75.16796875 228.64875 75.16796875 227.96875 75.16796875 C227.96875 74.50796875 227.96875 73.84796875 227.96875 73.16796875 C226.97875 73.16796875 225.98875 73.16796875 224.96875 73.16796875 C224.96875 72.50796875 224.96875 71.84796875 224.96875 71.16796875 C216.73423242 69.03665358 208.8121957 68.929591 200.34375 69.04296875 C199.05339844 69.05199219 197.76304687 69.06101562 196.43359375 69.0703125 C193.27844751 69.09368395 190.12370074 69.12644784 186.96875 69.16796875 Z M-75.03125 69.16796875 C-77.32700603 71.46372478 -77.35464599 72.176394 -77.65625 75.29296875 C-77.78 76.57171875 -77.90375 77.85046875 -78.03125 79.16796875 C-77.55171875 78.85085937 -77.0721875 78.53375 -76.578125 78.20703125 C-72.86902894 76.69381108 -69.25315798 76.70105464 -65.28125 76.54296875 C-64.48847656 76.50429687 -63.69570312 76.465625 -62.87890625 76.42578125 C-60.93005584 76.33186075 -58.98068549 76.24884053 -57.03125 76.16796875 C-56.9849571 83.69565655 -56.94939635 91.22332963 -56.92762566 98.75112724 C-56.91717802 102.24640802 -56.90300117 105.74159158 -56.88037109 109.23681641 C-56.85453047 113.25293931 -56.84478534 117.26895972 -56.8359375 121.28515625 C-56.82561493 122.54351288 -56.81529236 123.80186951 -56.80465698 125.09835815 C-56.80450592 126.25941071 -56.80435486 127.42046326 -56.80419922 128.61669922 C-56.799758 129.64262177 -56.79531677 130.66854431 -56.79074097 131.72555542 C-57.03125 134.16796875 -57.03125 134.16796875 -59.03125 136.16796875 C-58.04717689 137.37292784 -58.04717689 137.37292784 -56.17358398 137.28149414 C-55.38282471 137.27625732 -54.59206543 137.27102051 -53.77734375 137.265625 C-52.92333984 137.26240234 -52.06933594 137.25917969 -51.18945312 137.25585938 C-50.29162109 137.24748047 -49.39378906 137.23910156 -48.46875 137.23046875 C-47.11620117 137.22370117 -47.11620117 137.22370117 -45.73632812 137.21679688 C-43.50123686 137.204971 -41.26627563 137.18849095 -39.03125 137.16796875 C-39.35467377 136.6252533 -39.67809753 136.08253784 -40.01132202 135.52337646 C-41.23754464 132.69155473 -41.30917076 130.56460498 -41.35009766 127.48144531 C-41.36996735 126.34056458 -41.38983704 125.19968384 -41.41030884 124.02423096 C-41.42186005 122.79807068 -41.43341125 121.5719104 -41.4453125 120.30859375 C-41.46467865 119.04907898 -41.4840448 117.78956421 -41.5039978 116.49188232 C-41.55363414 113.15135925 -41.59491277 109.8109455 -41.63214111 106.47027588 C-41.67222339 103.05820827 -41.72329639 99.64630699 -41.7734375 96.234375 C-41.86950037 89.54567994 -41.95454675 82.85691231 -42.03125 76.16796875 C-39.1346352 76.28226923 -36.23946684 76.40901115 -33.34375 76.54296875 C-32.52712891 76.57390625 -31.71050781 76.60484375 -30.86914062 76.63671875 C-26.52998367 76.84752799 -22.98841543 77.18535634 -19.03125 79.16796875 C-19.52625 74.71296875 -19.52625 74.71296875 -20.03125 70.16796875 C-20.69079681 70.17018936 -21.35034363 70.17240997 -22.02987671 70.17469788 C-28.87505554 70.19676769 -35.72022432 70.21188248 -42.56542969 70.22290039 C-45.12240001 70.22793892 -47.67936743 70.23476982 -50.23632812 70.2434082 C-53.90495517 70.25549477 -57.57354423 70.26120176 -61.2421875 70.265625 C-62.39117523 70.27078629 -63.54016296 70.27594757 -64.72396851 70.28126526 C-65.7849173 70.28134079 -66.84586609 70.28141632 -67.93896484 70.28149414 C-69.34461197 70.28482506 -69.34461197 70.28482506 -70.77865601 70.28822327 C-73.03125 70.16796875 -73.03125 70.16796875 -75.03125 69.16796875 Z M75.96875 73.16796875 C75.96875 73.82796875 75.96875 74.48796875 75.96875 75.16796875 C74.793125 75.29171875 74.793125 75.29171875 73.59375 75.41796875 C72.294375 75.78921875 72.294375 75.78921875 70.96875 76.16796875 C69.87708725 78.10127478 69.87708725 78.10127478 68.96875 80.16796875 C68.30875 80.47734375 67.64875 80.78671875 66.96875 81.10546875 C64.20900727 82.57158207 63.97560298 84.29124595 62.96875 87.16796875 C62.30875 87.82796875 61.64875 88.48796875 60.96875 89.16796875 C61.29875 89.82796875 61.62875 90.48796875 61.96875 91.16796875 C61.30875 91.16796875 60.64875 91.16796875 59.96875 91.16796875 C59.824375 92.24046875 59.68 93.31296875 59.53125 94.41796875 C58.96875 98.16796875 58.96875 98.16796875 58.4140625 100.1328125 C57.15299537 105.89611052 58.99782603 112.77386104 60.96875 118.16796875 C62.65267126 120.71163802 62.65267126 120.71163802 64.96875 123.16796875 C65.53335937 123.85632813 66.09796875 124.5446875 66.6796875 125.25390625 C67.59621094 126.35605469 67.59621094 126.35605469 68.53125 127.48046875 C69.11003906 128.17785156 69.68882812 128.87523437 70.28515625 129.59375 C71.94981432 131.50945984 71.94981432 131.50945984 74.96875 131.16796875 C75.29875 131.82796875 75.62875 132.48796875 75.96875 133.16796875 C76.95875 133.16796875 77.94875 133.16796875 78.96875 133.16796875 C79.46375 134.15796875 79.46375 134.15796875 79.96875 135.16796875 C80.95875 134.67296875 80.95875 134.67296875 81.96875 134.16796875 C82.46375 135.15796875 82.46375 135.15796875 82.96875 136.16796875 C86.25289305 137.11864174 87.66568408 137.26899072 90.96875 136.16796875 C91.29875 136.82796875 91.62875 137.48796875 91.96875 138.16796875 C94.82365236 138.05316844 97.6772088 137.92643911 100.53125 137.79296875 C101.33111328 137.76203125 102.13097656 137.73109375 102.95507812 137.69921875 C107.91091131 137.45648406 112.33215692 137.00328684 116.96875 135.16796875 C118.50961322 131.65396207 118.50961322 131.65396207 118.96875 128.16796875 C117.97875 127.50796875 116.98875 126.84796875 115.96875 126.16796875 C115.411875 126.78671875 114.855 127.40546875 114.28125 128.04296875 C109.3358595 132.58738164 104.32095495 132.48889633 97.89453125 132.34765625 C89.8878428 131.85592372 82.91411422 128.23545139 77.328125 122.4765625 C76.04308504 120.93679464 76.04308504 120.93679464 73.96875 121.16796875 C73.845 120.65234375 73.72125 120.13671875 73.59375 119.60546875 C73.08409592 117.61781783 72.53246433 115.64096891 71.96875 113.66796875 C71.63875 112.51296875 71.30875 111.35796875 70.96875 110.16796875 C70.77539062 109.5234375 70.58203125 108.87890625 70.3828125 108.21484375 C69.92297619 105.94169066 70.03842025 104.21206797 70.34375 101.91796875 C70.44300781 101.14066406 70.54226563 100.36335938 70.64453125 99.5625 C70.75152344 98.77230469 70.85851562 97.98210937 70.96875 97.16796875 C71.15726746 95.6472612 71.34484365 94.12643652 71.53125 92.60546875 C71.675625 91.47109375 71.82 90.33671875 71.96875 89.16796875 C72.62875 89.16796875 73.28875 89.16796875 73.96875 89.16796875 C74.236875 88.38421875 74.505 87.60046875 74.78125 86.79296875 C75.96875 84.16796875 75.96875 84.16796875 78.96875 82.16796875 C78.96875 81.50796875 78.96875 80.84796875 78.96875 80.16796875 C79.67 79.89984375 80.37125 79.63171875 81.09375 79.35546875 C83.99943825 78.23074648 83.99943825 78.23074648 86.65625 76.60546875 C93.99682372 73.41993676 101.44286481 73.66422095 108.96875 76.16796875 C112.22488514 77.52170992 112.91458345 78.08671893 114.96875 81.16796875 C115.62875 81.16796875 116.28875 81.16796875 116.96875 81.16796875 C117.62875 82.48796875 118.28875 83.80796875 118.96875 85.16796875 C118.948125 84.07484375 118.9275 82.98171875 118.90625 81.85546875 C118.96875 78.16796875 118.96875 78.16796875 119.96875 75.16796875 C119.96875 74.17796875 119.96875 73.18796875 119.96875 72.16796875 C106.41975781 67.65163802 88.98560854 66.93072404 75.96875 73.16796875 Z M150.96875 71.16796875 C150.824375 72.09609375 150.68 73.02421875 150.53125 73.98046875 C149.9321455 77.37539422 149.02201371 78.51583646 146.96875 81.16796875 C146.82050781 81.9259375 146.67226563 82.68390625 146.51953125 83.46484375 C145.92606623 86.37745222 144.93456913 88.67614351 143.65625 91.35546875 C141.92425619 95.08126939 140.22868532 98.80916061 138.65625 102.60546875 C138.16705078 103.77916016 138.16705078 103.77916016 137.66796875 104.9765625 C136.76610027 107.41971319 136.76610027 107.41971319 136.96875 111.16796875 C136.30875 111.16796875 135.64875 111.16796875 134.96875 111.16796875 C134.8140625 112.52921875 134.8140625 112.52921875 134.65625 113.91796875 C133.94814434 117.26537733 133.0532364 118.56236075 130.96875 121.16796875 C130.37804986 123.11400149 130.37804986 123.11400149 129.96875 125.16796875 C129.4428125 126.43640625 129.4428125 126.43640625 128.90625 127.73046875 C127.78926046 130.19937942 127.78926046 130.19937942 127.96875 133.16796875 C125.98875 133.66296875 125.98875 133.66296875 123.96875 134.16796875 C124.29875 135.15796875 124.62875 136.14796875 124.96875 137.16796875 C128.59875 137.16796875 132.22875 137.16796875 135.96875 137.16796875 C136.46375 136.17796875 136.46375 136.17796875 136.96875 135.16796875 C136.30875 134.50796875 135.64875 133.84796875 134.96875 133.16796875 C138.68303571 119.73939732 138.68303571 119.73939732 140.96875 115.16796875 C140.63875 114.50796875 140.30875 113.84796875 139.96875 113.16796875 C141.144375 113.18859375 142.32 113.20921875 143.53125 113.23046875 C146.36745738 113.24049068 148.82403499 113.03750155 151.65625 112.60546875 C154.84355119 112.18450444 156.92262787 112.21061608 159.96875 113.16796875 C165.05183821 118.25105696 168.96875 129.96655667 168.96875 137.16796875 C170.88510217 137.22220513 172.80189925 137.26086838 174.71875 137.29296875 C175.78609375 137.31617188 176.8534375 137.339375 177.953125 137.36328125 C180.89345106 137.17284562 182.49236878 136.69466979 184.96875 135.16796875 C184.0715625 134.33265625 184.0715625 134.33265625 183.15625 133.48046875 C179.5104455 129.62633257 177.89740922 126.34192727 176.96875 121.16796875 C176.659375 120.55050781 176.35 119.93304688 176.03125 119.296875 C174.94276563 117.11590448 174.23745944 114.99806092 173.53125 112.66796875 C172.43962504 109.27672775 171.17499122 106.97591212 168.96875 104.16796875 C168.824375 103.42546875 168.68 102.68296875 168.53125 101.91796875 C167.85700278 98.62164903 166.4932032 96.07917781 164.90625 93.1328125 C163.9568255 91.14297698 163.4644055 89.31020864 162.96875 87.16796875 C160.98909968 81.38405065 158.70311949 75.63670772 155.96875 70.16796875 C153.0432856 69.94436195 153.0432856 69.94436195 150.96875 71.16796875 Z M117.96875 86.16796875 C118.96875 88.16796875 118.96875 88.16796875 118.96875 88.16796875 Z M117.96875 123.16796875 C118.29875 124.48796875 118.62875 125.80796875 118.96875 127.16796875 C119.29875 125.84796875 119.62875 124.52796875 119.96875 123.16796875 C119.30875 123.16796875 118.64875 123.16796875 117.96875 123.16796875 Z M-22.03125 162.16796875 C-17.74634724 162.9843457 -13.70094823 163.29435474 -9.34155273 163.29736328 C-8.3735568 163.29995777 -8.3735568 163.29995777 -7.3860054 163.30260468 C-5.24559195 163.30694918 -3.10525819 163.30401475 -0.96484375 163.30078125 C0.56552657 163.30179821 2.0958967 163.30313843 3.62626648 163.30477905 C7.74170843 163.30748262 11.85711275 163.30300542 15.97254944 163.29653931 C18.52861646 163.29297242 21.08467787 163.29135067 23.64074707 163.2902832 C56.09063022 163.27346963 88.52634159 162.85055097 120.96875 162.16796875 C120.63875 161.50796875 120.30875 160.84796875 119.96875 160.16796875 C101.74956858 160.12129707 83.53040262 160.08600366 65.31117439 160.06434441 C56.85212331 160.0540214 48.39310931 160.03994157 39.93408203 160.01708984 C32.56323468 159.99718724 25.19241419 159.98425977 17.82154071 159.97979176 C13.91687311 159.97717905 10.01228235 159.97101695 6.10763931 159.95650864 C2.43545328 159.94297409 -1.23662395 159.93873769 -4.90883255 159.94175339 C-6.90517816 159.94093737 -8.90151182 159.9301542 -10.89782715 159.91912842 C-12.07855804 159.92187775 -13.25928894 159.92462708 -14.47579956 159.92745972 C-15.50636412 159.92561613 -16.53692867 159.92377254 -17.59872246 159.92187309 C-20.21212098 159.92727846 -20.21212098 159.92727846 -22.03125 162.16796875 Z M-24.03125 160.16796875 C-27.14679793 159.76613626 -27.14679793 159.76613626 -30.86767578 159.91918945 C-31.92149948 159.93316269 -31.92149948 159.93316269 -32.99661255 159.94741821 C-35.32374753 159.98185258 -37.64985513 160.03773296 -39.9765625 160.09375 C-41.58793945 160.12177596 -43.19934012 160.14846713 -44.8107605 160.1738739 C-49.05585261 160.24440451 -53.30037964 160.33311024 -57.54504395 160.42553711 C-61.87488659 160.51662351 -66.20501714 160.59061139 -70.53515625 160.66601562 C-79.0342309 160.81654941 -87.53278469 160.98627492 -96.03125 161.16796875 C-96.36125 161.82796875 -96.69125 162.48796875 -97.03125 163.16796875 C-72.28125 163.16796875 -47.53125 163.16796875 -22.03125 163.16796875 C-23.02125 161.68296875 -23.02125 161.68296875 -24.03125 160.16796875 Z " fill="#000000" transform="translate(288.03125,35.83203125)"/>
<path d="M0 0 C1.21796265 -0.00315216 2.43592529 -0.00630432 3.6907959 -0.009552 C5.03019242 -0.00776222 6.36958862 -0.00571127 7.70898438 -0.00341797 C9.07279477 -0.00409106 10.43660505 -0.00506114 11.80041504 -0.00631714 C14.66203959 -0.00779385 17.52363297 -0.00564044 20.38525391 -0.00097656 C24.06092051 0.00472073 27.73651411 0.00144157 31.41217804 -0.00454903 C34.22935541 -0.00815538 37.04651535 -0.00701571 39.86369324 -0.00442123 C41.21933501 -0.00375217 42.57497834 -0.00457968 43.93061829 -0.00690079 C45.82223482 -0.00942848 47.71385687 -0.00489561 49.60546875 0 C51.2231012 0.00119339 51.2231012 0.00119339 52.87341309 0.00241089 C55.30273438 0.12939453 55.30273438 0.12939453 56.30273438 1.12939453 C59.86599884 1.2023002 63.41906101 1.12543023 66.98242188 1.06689453 C70.30273438 1.12939453 70.30273438 1.12939453 73.30273438 2.12939453 C75.50792496 2.33347387 77.71722978 2.49454894 79.92773438 2.62939453 C91.6420385 3.41844092 91.6420385 3.41844092 96.30273438 4.12939453 C96.63273437 4.78939453 96.96273438 5.44939453 97.30273438 6.12939453 C98.78773438 5.63439453 98.78773438 5.63439453 100.30273438 5.12939453 C102.03597557 5.21400946 103.7666625 5.36543808 105.49023438 5.56689453 C106.84181641 5.71964844 106.84181641 5.71964844 108.22070312 5.87548828 C108.90777344 5.95927734 109.59484375 6.04306641 110.30273438 6.12939453 C110.30273438 6.78939453 110.30273438 7.44939453 110.30273438 8.12939453 C110.83898437 7.92314453 111.37523437 7.71689453 111.92773438 7.50439453 C115.13459845 6.99804757 117.26106229 8.07412054 120.30273438 9.12939453 C123.0533867 9.29796936 123.0533867 9.29796936 125.30273438 9.12939453 C125.30273438 9.78939453 125.30273438 10.44939453 125.30273438 11.12939453 C126.88054687 11.09845703 126.88054687 11.09845703 128.49023438 11.06689453 C131.6447086 11.11860722 134.2891091 11.24303416 137.30273438 12.12939453 C137.63273437 12.78939453 137.96273438 13.44939453 138.30273438 14.12939453 C140.5240788 14.56093271 140.5240788 14.56093271 143.11523438 14.69189453 C146.29728975 14.92220578 149.22833788 15.26225706 152.30273438 16.12939453 C152.30273438 16.78939453 152.30273438 17.44939453 152.30273438 18.12939453 C154.28273438 18.12939453 156.26273437 18.12939453 158.30273438 18.12939453 C158.30273438 18.78939453 158.30273438 19.44939453 158.30273438 20.12939453 C159.29273438 19.79939453 160.28273438 19.46939453 161.30273438 19.12939453 C162.29273438 19.45939453 163.28273438 19.78939453 164.30273438 20.12939453 C164.30273438 20.78939453 164.30273438 21.44939453 164.30273438 22.12939453 C166.28273438 22.12939453 168.26273437 22.12939453 170.30273438 22.12939453 C170.30273438 22.78939453 170.30273438 23.44939453 170.30273438 24.12939453 C171.35460937 24.23251953 172.40648437 24.33564453 173.49023438 24.44189453 C177.31099901 25.13088488 179.0867564 26.08999386 182.30273438 28.12939453 C184.26201985 28.93640384 186.24429652 29.65351857 188.23632812 30.37548828 C197.02990201 33.58372979 197.02990201 33.58372979 198.30273438 36.12939453 C199.94825399 36.84667231 201.61695726 37.51264681 203.30273438 38.12939453 C203.96273438 38.45939453 204.62273437 38.78939453 205.30273438 39.12939453 C206.9463605 39.22541766 208.59380703 39.26014014 210.24023438 39.26220703 C211.21734375 39.26349609 212.19445312 39.26478516 213.20117188 39.26611328 C214.2246875 39.26224609 215.24820312 39.25837891 216.30273438 39.25439453 C217.32625 39.25826172 218.34976562 39.26212891 219.40429688 39.26611328 C220.38140625 39.26482422 221.35851562 39.26353516 222.36523438 39.26220703 C223.71294922 39.26051514 223.71294922 39.26051514 225.08789062 39.25878906 C227.34404563 39.27302537 227.34404563 39.27302537 229.30273438 38.12939453 C231.543964 38.03223555 233.78816 38.00142344 236.03149414 38 C237.06827805 37.99737152 237.06827805 37.99737152 238.12600708 37.99468994 C240.41541031 37.99028111 242.70473658 37.99320569 244.99414062 37.99658203 C246.58072423 37.99590879 248.16730774 37.9949386 249.75389099 37.99368286 C253.08032208 37.99220727 256.40672633 37.9943563 259.7331543 37.99902344 C264.00628319 38.00472529 268.27934933 38.00143797 272.55247593 37.99545097 C275.8285927 37.99184559 279.10469448 37.99298376 282.38081169 37.99557877 C283.95694931 37.99624786 285.53308827 37.99542023 287.10922432 37.99309921 C289.30730955 37.99057255 291.50529164 37.99441322 293.70336914 38 C294.95642349 38.00079559 296.20947784 38.00159119 297.50050354 38.00241089 C300.30273438 38.12939453 300.30273438 38.12939453 301.30273438 39.12939453 C301.39948003 41.14167498 301.42460445 43.15740822 301.42298889 45.17201233 C301.42436356 46.48599503 301.42573822 47.79997772 301.42715454 49.15377808 C301.42361492 50.62359642 301.4199801 52.09341453 301.41625977 53.56323242 C301.4159779 55.10030617 301.41613561 56.63738006 301.41670227 58.17445374 C301.41699029 62.36022313 301.41109289 66.54596412 301.40412831 70.73172688 C301.39789546 75.10129609 301.39729103 79.47086588 301.39610291 83.84043884 C301.39298939 92.12066501 301.38477572 100.40087803 301.37475342 108.6810984 C301.36150786 119.86605262 301.35609254 131.05101041 301.3502512 142.2359705 C301.34083584 159.86712169 301.32091707 177.49824516 301.30273438 195.12939453 C274.90273438 195.12939453 248.50273438 195.12939453 221.30273438 195.12939453 C221.30273438 195.78939453 221.30273438 196.44939453 221.30273438 197.12939453 C214.70273437 197.12939453 208.10273438 197.12939453 201.30273438 197.12939453 C200.97273438 197.78939453 200.64273437 198.44939453 200.30273438 199.12939453 C198.30273438 199.7960612 196.30273438 200.46272786 194.30273438 201.12939453 C193.97273438 201.78939453 193.64273437 202.44939453 193.30273438 203.12939453 C188.10572682 206.48579524 181.65566202 210.12939453 175.30273438 210.12939453 C174.97273438 210.78939453 174.64273437 211.44939453 174.30273438 212.12939453 C172.41210937 212.91064453 172.41210937 212.91064453 170.05273438 213.62939453 C166.73505506 214.67239324 163.52676205 215.82235629 160.30273438 217.12939453 C157.11523438 218.31689453 157.11523438 218.31689453 154.30273438 219.12939453 C153.64273437 218.79939453 152.98273438 218.46939453 152.30273438 218.12939453 C151.97273438 218.78939453 151.64273437 219.44939453 151.30273438 220.12939453 C149.08789062 220.72705078 149.08789062 220.72705078 146.36523438 221.19189453 C142.71501228 221.7974492 142.71501228 221.7974492 139.30273438 223.12939453 C138.64273437 222.79939453 137.98273438 222.46939453 137.30273438 222.12939453 C136.97273438 222.78939453 136.64273437 223.44939453 136.30273438 224.12939453 C133.93945312 224.72705078 133.93945312 224.72705078 130.99023438 225.19189453 C126.99914372 225.82329712 126.99914372 225.82329712 123.07226562 226.75048828 C121.30273438 227.12939453 121.30273438 227.12939453 119.30273438 226.12939453 C118.97273438 226.78939453 118.64273437 227.44939453 118.30273438 228.12939453 C116.55273438 228.47314453 116.55273438 228.47314453 114.30273438 228.62939453 C111.05038133 228.91757771 107.97812345 229.36909011 104.80273438 230.12939453 C101.21088269 230.96728789 97.70055489 231.4846548 94.03320312 231.84814453 C90.3669028 232.2257892 86.7102539 232.6759796 83.05273438 233.12939453 C82.36687256 233.21253906 81.68101074 233.29568359 80.97436523 233.38134766 C78.16984393 233.72921649 75.40470527 234.10786402 72.63867188 234.69189453 C70.08932072 235.16936498 67.76777769 235.19275951 65.17773438 235.12939453 C62.09769277 235.0544999 60.26809616 235.1409406 57.30273438 236.12939453 C55.8068146 236.19905319 54.30792632 236.21387441 52.81054688 236.19189453 C51.94042969 236.18416016 51.0703125 236.17642578 50.17382812 236.16845703 C48.35090987 236.14252647 46.52799319 236.11648576 44.70507812 236.09033203 C43.83238281 236.08259766 42.9596875 236.07486328 42.06054688 236.06689453 C40.87162842 236.04949219 40.87162842 236.04949219 39.65869141 236.03173828 C37.26777626 236.06964844 37.26777626 236.06964844 34.82788086 236.625 C32.20162222 237.14959155 29.81815779 237.25873837 27.14257812 237.26220703 C26.18416016 237.26349609 25.22574219 237.26478516 24.23828125 237.26611328 C23.24892578 237.26224609 22.25957031 237.25837891 21.24023438 237.25439453 C19.75040039 237.26019531 19.75040039 237.26019531 18.23046875 237.26611328 C17.27333984 237.26482422 16.31621094 237.26353516 15.33007812 237.26220703 C14.46116943 237.2610791 13.59226074 237.25995117 12.69702148 237.25878906 C10.30273438 237.12939453 10.30273438 237.12939453 8.36669922 236.63867188 C5.64513601 235.96713404 3.05313042 235.92777277 0.25195312 235.84814453 C-1.50858398 235.79207031 -1.50858398 235.79207031 -3.3046875 235.73486328 C-4.52736328 235.70005859 -5.75003906 235.66525391 -7.00976562 235.62939453 C-21.15312132 235.22293301 -21.15312132 235.22293301 -27.69726562 234.12939453 C-29.5500872 233.94838618 -31.40427758 233.78064246 -33.25976562 233.62939453 C-37.8899651 233.22401455 -42.4060672 232.63854974 -46.94726562 231.62939453 C-50.39782855 231.00201945 -53.85184047 230.70931656 -57.34179688 230.37939453 C-59.8389478 230.11435695 -62.24375402 229.65988353 -64.69726562 229.12939453 C-65.85226563 228.96439453 -67.00726563 228.79939453 -68.19726562 228.62939453 C-71.06127983 228.22024964 -73.86864772 227.72940439 -76.69726562 227.12939453 C-76.69726562 226.46939453 -76.69726562 225.80939453 -76.69726562 225.12939453 C-77.68726563 225.45939453 -78.67726562 225.78939453 -79.69726562 226.12939453 C-82.41380633 225.54081071 -85.031469 224.89316251 -87.69726562 224.12939453 C-88.87289062 223.79939453 -90.04851562 223.46939453 -91.25976562 223.12939453 C-92.39414063 222.79939453 -93.52851563 222.46939453 -94.69726562 222.12939453 C-95.87289062 221.79939453 -97.04851562 221.46939453 -98.25976562 221.12939453 C-101.43853645 220.2046612 -104.56329252 219.19494539 -107.69726562 218.12939453 C-109.1969947 217.62858248 -110.69701494 217.12864183 -112.19726562 216.62939453 C-112.96683594 216.37158203 -113.73640625 216.11376953 -114.52929688 215.84814453 C-116.30888367 215.2581554 -118.09589583 214.69060858 -119.88476562 214.12939453 C-122.96977865 213.03250101 -125.77051433 211.59277018 -128.69726562 210.12939453 C-129.62539062 209.82001953 -130.55351562 209.51064453 -131.50976562 209.19189453 C-135.70751943 207.79264326 -139.67721723 205.96968335 -143.69726562 204.12939453 C-143.69726562 203.46939453 -143.69726562 202.80939453 -143.69726562 202.12939453 C-146.99726563 201.13939453 -150.29726562 200.14939453 -153.69726562 199.12939453 C-153.69726562 198.46939453 -153.69726562 197.80939453 -153.69726562 197.12939453 C-154.56005127 197.12939453 -155.42283691 197.12939453 -156.31176758 197.12939453 C-184.77360026 197.12939453 -213.23543294 197.12939453 -241.69726562 197.12939453 C-243.08006899 194.36378781 -242.82003734 192.13859927 -242.81752014 189.04244995 C-242.81889481 187.7439209 -242.82026947 186.44539185 -242.82168579 185.10751343 C-242.8181464 183.66021706 -242.81451158 182.21292092 -242.81079102 180.765625 C-242.81050907 179.24810793 -242.81066701 177.73059072 -242.81123352 176.21307373 C-242.81152122 172.08521276 -242.80562889 167.95738067 -242.79865956 163.82952642 C-242.7924215 159.51868682 -242.79182187 155.2078466 -242.79063416 150.89700317 C-242.78752218 142.73014131 -242.77931058 134.56329279 -242.76928467 126.39643681 C-242.75811939 117.10031762 -242.75261203 107.8041978 -242.74758923 98.50807357 C-242.73712787 79.38183965 -242.719531 60.25561816 -242.69726562 41.12939453 C-231.6492586 40.97573869 -220.60119318 40.82755691 -209.55301857 40.68643093 C-204.42332556 40.62073233 -199.29367233 40.55312349 -194.1640625 40.48120117 C-189.21692263 40.41190668 -184.26974123 40.34756188 -179.32249069 40.2866993 C-177.43176293 40.26255922 -175.54105737 40.23661299 -173.65037918 40.2088604 C-171.00930505 40.1703967 -168.36822609 40.13826268 -165.72705078 40.10766602 C-164.54561745 40.08824699 -164.54561745 40.08824699 -163.34031677 40.06843567 C-157.92536995 40.01534237 -157.92536995 40.01534237 -155.69726562 41.12939453 C-155.69726562 40.46939453 -155.69726562 39.80939453 -155.69726562 39.12939453 C-152.72726563 38.13939453 -149.75726563 37.14939453 -146.69726562 36.12939453 C-146.69726562 35.46939453 -146.69726562 34.80939453 -146.69726562 34.12939453 C-140.64398264 31.51817442 -134.55625295 29.0751694 -128.38476562 26.75439453 C-124.53611968 25.28285344 -120.79813663 23.76616832 -117.13476562 21.87939453 C-114.46003279 20.51771236 -112.58417339 19.62530507 -109.69726562 19.12939453 C-109.03726563 19.45939453 -108.37726563 19.78939453 -107.69726562 20.12939453 C-107.36726562 19.46939453 -107.03726563 18.80939453 -106.69726562 18.12939453 C-105.04726562 18.12939453 -103.39726562 18.12939453 -101.69726562 18.12939453 C-101.36726562 17.46939453 -101.03726563 16.80939453 -100.69726562 16.12939453 C-98.75976562 15.44189453 -98.75976562 15.44189453 -96.69726562 15.12939453 C-95.70726562 15.62439453 -95.70726562 15.62439453 -94.69726562 16.12939453 C-94.36726562 15.46939453 -94.03726563 14.80939453 -93.69726562 14.12939453 C-89.22185579 12.86709945 -89.22185579 12.86709945 -86.69726562 14.12939453 C-86.36726562 13.46939453 -86.03726563 12.80939453 -85.69726562 12.12939453 C-83.18554688 11.56689453 -83.18554688 11.56689453 -80.00976562 11.12939453 C-76.6811919 10.63089351 -73.70720834 10.13270877 -70.50976562 9.06689453 C-67.34674308 8.01255368 -64.42848674 7.72174475 -61.12304688 7.41064453 C-58.58613893 7.11651028 -56.13423868 6.65155787 -53.63476562 6.12939453 C-49.32414476 5.2299605 -45.07309824 4.62344015 -40.69726562 4.12939453 C-38.81007812 3.88189453 -38.81007812 3.88189453 -36.88476562 3.62939453 C-30.50621293 2.83825621 -24.10874326 2.26829775 -17.69335938 1.87939453 C-16.66964233 1.81655273 -16.66964233 1.81655273 -15.62524414 1.75244141 C-13.64691978 1.63386899 -11.66818992 1.52212266 -9.68945312 1.41064453 C-6.05607555 1.06912601 -3.95198517 0.00291553 0 0 Z M-6.29492188 10.57470703 C-7.33633583 10.63282059 -7.33633583 10.63282059 -8.39878845 10.69210815 C-11.6122162 10.89885095 -14.59577569 11.27318419 -17.69726562 12.12939453 C-20.11138157 12.32964378 -22.52874046 12.49231213 -24.94726562 12.62939453 C-33.8620002 13.06247093 -33.8620002 13.06247093 -42.62304688 14.62939453 C-45.5504785 15.33506543 -48.48574829 15.56116684 -51.47851562 15.84814453 C-53.61981871 16.11957732 -55.60977949 16.59164455 -57.69726562 17.12939453 C-58.79039062 17.27376953 -59.88351563 17.41814453 -61.00976562 17.56689453 C-64.6572344 18.04209853 -64.6572344 18.04209853 -67.94726562 19.06689453 C-71.05466546 19.94732448 -74.02342586 20.578742 -77.19726562 21.12939453 C-82.56734586 22.06970954 -87.6590823 23.4364122 -92.82226562 25.19189453 C-95.44338533 26.04660748 -97.98559448 26.65086433 -100.69726562 27.12939453 C-100.69726562 27.78939453 -100.69726562 28.44939453 -100.69726562 29.12939453 C-101.68726563 28.79939453 -102.67726562 28.46939453 -103.69726562 28.12939453 C-106.07867836 28.81445 -106.07867836 28.81445 -108.57226562 29.94189453 C-109.4153125 30.29896484 -110.25835937 30.65603516 -111.12695312 31.02392578 C-111.97515625 31.38873047 -112.82335937 31.75353516 -113.69726562 32.12939453 C-115.36225072 32.80024984 -117.02867193 33.46756577 -118.69726562 34.12939453 C-119.84195313 34.59345703 -119.84195313 34.59345703 -121.00976562 35.06689453 C-123.20838707 35.93611696 -125.41434424 36.75639851 -127.63476562 37.56689453 C-131.11995245 38.86811813 -134.39596493 40.40697678 -137.69726562 42.12939453 C-139.69726562 43.12939453 -141.69726562 44.12939453 -143.69726562 45.12939453 C-143.69726562 45.78939453 -143.69726562 46.44939453 -143.69726562 47.12939453 C-145.67726563 47.45939453 -147.65726562 47.78939453 -149.69726562 48.12939453 C-149.69726562 48.78939453 -149.69726562 49.44939453 -149.69726562 50.12939453 C-177.08726562 50.12939453 -204.47726563 50.12939453 -232.69726562 50.12939453 C-234.12466866 52.98420061 -233.34377328 55.35287451 -232.96267891 58.42739677 C-232.46605894 63.48315749 -232.56768357 68.55013938 -232.58374023 73.62573242 C-232.58359421 74.84624298 -232.58344818 76.06675354 -232.58329773 77.32424927 C-232.5838717 80.64388327 -232.58885905 83.96345375 -232.59587169 87.28307652 C-232.60215723 90.76240044 -232.60271312 94.24172536 -232.60389709 97.72105408 C-232.60699516 104.29750753 -232.61518784 110.87394419 -232.62524658 117.45039028 C-232.63645527 124.94259437 -232.64193012 132.4347993 -232.64694202 139.9270097 C-232.65737185 155.32781434 -232.67494154 170.72860226 -232.69726562 186.12939453 C-228.10998244 187.03124745 -223.80588717 187.23004504 -219.13476562 187.17944336 C-218.03600098 187.17002464 -218.03600098 187.17002464 -216.91503906 187.16041565 C-215.33380227 187.14662868 -213.75258292 187.13070815 -212.17138672 187.11286354 C-209.6656925 187.0860884 -207.1600883 187.06830512 -204.65429688 187.0533905 C-197.53303907 187.01076972 -190.41196024 186.9629173 -183.29101562 186.88256836 C-178.92691758 186.83397864 -174.56306384 186.80503377 -170.19873047 186.78882408 C-168.54014142 186.77894581 -166.8815787 186.76176486 -165.22314453 186.73703957 C-162.90171651 186.70318798 -160.58141043 186.69440187 -158.25976562 186.69116211 C-156.94105469 186.67926346 -155.62234375 186.66736481 -154.26367188 186.65510559 C-150.08859399 187.2103405 -148.01178149 188.59662057 -144.69726562 191.12939453 C-142.63432006 192.27119898 -140.5508798 193.37687378 -138.44726562 194.44189453 C-136.89265625 195.24046875 -136.89265625 195.24046875 -135.30664062 196.05517578 C-134.44554687 196.40966797 -133.58445312 196.76416016 -132.69726562 197.12939453 C-132.03726563 196.79939453 -131.37726563 196.46939453 -130.69726562 196.12939453 C-130.69726562 196.78939453 -130.69726562 197.44939453 -130.69726562 198.12939453 C-129.24320313 198.31501953 -129.24320313 198.31501953 -127.75976562 198.50439453 C-126.74914062 198.71064453 -125.73851562 198.91689453 -124.69726562 199.12939453 C-124.36726563 199.78939453 -124.03726563 200.44939453 -123.69726562 201.12939453 C-122.1256575 202.70100265 -120.19297089 202.90854683 -118.07226562 203.50439453 C-114.90919955 204.42488737 -111.88863487 205.40165871 -108.88476562 206.75439453 C-106.05627861 207.97452618 -103.70147835 208.59017686 -100.69726562 209.12939453 C-99.74851563 209.45939453 -98.79976562 209.78939453 -97.82226562 210.12939453 C-94.68967857 211.23637197 -94.68967857 211.23637197 -91.25976562 211.56689453 C-87.69726562 212.12939453 -87.69726562 212.12939453 -84.32226562 213.62939453 C-80.64399903 215.15143588 -77.78856852 215.55772059 -73.88085938 215.88720703 C-70.70138719 216.23984974 -67.75812361 217.21650706 -64.69726562 218.12939453 C-57.95767585 219.65910405 -51.24578327 220.64697599 -44.37695312 221.37548828 C-39.62521501 221.88516316 -35.03415818 222.56096121 -30.38476562 223.69189453 C-27.97896752 224.08353608 -25.87348233 224.15966818 -23.44726562 224.12939453 C-22.20976562 224.12939453 -20.97226563 224.12939453 -19.69726562 224.12939453 C-19.36726562 224.45939453 -19.03726563 224.78939453 -18.69726562 225.12939453 C-16.72013755 225.22839653 -14.73936524 225.25910226 -12.75976562 225.25439453 C-11.67824219 225.25697266 -10.59671875 225.25955078 -9.48242188 225.26220703 C-6.740669 225.31947242 -6.740669 225.31947242 -4.69726562 224.12939453 C-4.36726562 224.78939453 -4.03726563 225.44939453 -3.69726562 226.12939453 C3.89753494 226.15494089 11.49232424 226.17234316 19.0871582 226.18432617 C21.66593846 226.18932662 24.24471592 226.19612914 26.82348633 226.20483398 C30.54964898 226.21708873 34.27577386 226.22266588 38.00195312 226.22705078 C39.13791428 226.23221207 40.27387543 226.23737335 41.44425964 226.24269104 C50.79905271 226.24333329 60.11655984 226.00007928 69.30273438 224.12939453 C72.61687065 223.91145029 75.92570116 223.74041378 79.24414062 223.61181641 C83.8600518 223.37882279 87.85268667 222.46872928 92.30273438 221.12939453 C94.63572098 221.08917062 96.96980103 221.08619206 99.30273438 221.12939453 C100.97546752 220.82797671 102.64219321 220.49201271 104.30273438 220.12939453 C109.95872093 218.96546161 115.58143405 217.93037658 121.30273438 217.12939453 C126.15618677 216.06770182 130.91650398 214.54012946 135.67773438 213.12939453 C139.19705309 212.15854799 142.71689672 211.34947557 146.28710938 210.59423828 C148.4892368 210.11997705 148.4892368 210.11997705 151.30273438 209.12939453 C151.30273438 208.46939453 151.30273438 207.80939453 151.30273438 207.12939453 C152.29273438 207.45939453 153.28273438 207.78939453 154.30273438 208.12939453 C156.32367519 207.47728452 156.32367519 207.47728452 158.42773438 206.37939453 C164.02290131 203.74102313 169.75420196 201.88451525 175.67773438 200.12939453 C178.30238576 199.34413933 178.30238576 199.34413933 179.74023438 197.62939453 C182.17759601 195.28952736 185.08688913 194.91818676 188.30273438 194.12939453 C188.30273438 193.46939453 188.30273438 192.80939453 188.30273438 192.12939453 C190.8776418 191.09943156 193.44612459 190.07725263 196.05273438 189.12939453 C198.4597692 188.34508092 198.4597692 188.34508092 199.30273438 186.12939453 C200.45309677 186.13161514 201.60345917 186.13383575 202.78868103 186.13612366 C213.60473496 186.15635376 224.42078508 186.17136603 235.2368536 186.1812067 C240.79812849 186.18643587 246.35938817 186.19353412 251.9206543 186.20483398 C257.28280856 186.21566168 262.64494815 186.22167111 268.0071125 186.22427177 C270.05773716 186.22612624 272.10836097 186.22974725 274.15897942 186.23512459 C277.02063641 186.24233346 279.88223195 186.24338554 282.74389648 186.24291992 C283.60056915 186.2465152 284.45724182 186.25011047 285.33987427 186.2538147 C289.12783302 186.61732619 289.12783302 186.61732619 292.30273438 185.12939453 C292.40103137 183.47269536 292.42905418 181.81178851 292.42971802 180.1521759 C292.43253784 179.07404633 292.43535767 177.99591675 292.43826294 176.88511658 C292.43623871 175.69189285 292.43421448 174.49866913 292.43212891 173.26928711 C292.43388123 172.02056824 292.43563354 170.77184937 292.43743896 169.48529053 C292.44109821 166.049085 292.44022275 162.61293931 292.43705988 159.17673707 C292.43453399 155.58272357 292.43687472 151.98871269 292.43844604 148.3946991 C292.44026824 142.35272766 292.43786135 136.31076842 292.43310547 130.26879883 C292.42767504 123.28941389 292.42941641 116.31005821 292.43493187 109.33067399 C292.43947627 103.33994891 292.44010668 97.34923263 292.43749321 91.35850638 C292.43593615 87.7801606 292.43572076 84.20182855 292.43902969 80.62348366 C292.44246588 76.6277965 292.43769696 72.63215936 292.43212891 68.63647461 C292.43415314 67.45337204 292.43617737 66.27026947 292.43826294 65.05131531 C292.43544312 63.95908661 292.43262329 62.86685791 292.42971802 61.74153137 C292.42934099 60.79707059 292.42896397 59.85260981 292.42857552 58.879529 C292.29221551 55.89951511 291.84707757 53.06010668 291.30273438 50.12939453 C286.53583209 49.18242124 281.9229933 48.9982419 277.08178711 49.03173828 C276.27939606 49.03319855 275.477005 49.03465881 274.65029907 49.03616333 C272.91683265 49.03995418 271.18337004 49.04605464 269.44991875 49.05422974 C266.70505371 49.06704049 263.96023723 49.07352085 261.21534729 49.07836914 C255.39028781 49.08977349 249.56526848 49.1090189 243.74023438 49.12939453 C236.98502445 49.15300832 230.22983754 49.17339334 223.47459602 49.18533325 C220.77302595 49.1918066 218.07152665 49.20431305 215.36997986 49.21704102 C213.71141623 49.2206741 212.05285196 49.22402576 210.39428711 49.22705078 C209.64557846 49.2322171 208.89686981 49.23738342 208.12547302 49.2427063 C198.51391316 49.24367902 198.51391316 49.24367902 195.74023438 46.69189453 C195.26585937 46.17626953 194.79148437 45.66064453 194.30273438 45.12939453 C192.98972567 44.42354019 191.65093105 43.76546681 190.30273438 43.12939453 C189.37460937 42.68982422 188.44648438 42.25025391 187.49023438 41.79736328 C178.24302128 37.50239544 169.00223371 33.30063987 159.30273438 30.12939453 C157.69398438 29.54158203 157.69398438 29.54158203 156.05273438 28.94189453 C153.37279384 27.81006553 153.37279384 27.81006553 151.30273438 29.12939453 C151.30273438 28.46939453 151.30273438 27.80939453 151.30273438 27.12939453 C147.46664827 25.98673059 143.65515139 24.96546155 139.74023438 24.12939453 C137.20515026 23.5840319 134.88404435 22.98376322 132.42773438 22.12939453 C128.7781372 20.96152343 125.15721228 20.3486965 121.38476562 19.70361328 C116.96372147 18.87992064 112.61187047 17.79824649 108.24804688 16.71533203 C105.4950679 16.16765717 103.09471583 16.1010015 100.30273438 16.12939453 C99.31273437 15.79939453 98.32273437 15.46939453 97.30273438 15.12939453 C95.9671526 14.9314542 94.62625461 14.76785663 93.28320312 14.62939453 C92.50783203 14.54689453 91.73246094 14.46439453 90.93359375 14.37939453 C90.12728516 14.29689453 89.32097656 14.21439453 88.49023438 14.12939453 C83.39292755 13.60023373 78.35590271 12.99689124 73.30273438 12.12939453 C58.12511582 10.37249978 42.91921748 9.96422011 27.65795898 9.99902344 C24.87217758 10.00438118 22.0865578 9.99904327 19.30078125 9.99267578 C10.7570307 9.98908712 2.23655004 10.09022475 -6.29492188 10.57470703 Z " fill="#020101" transform="translate(274.697265625,17.87060546875)"/>
<path d="M0 0 C1.46373047 0.01353516 1.46373047 0.01353516 2.95703125 0.02734375 C4.06111328 0.04474609 4.06111328 0.04474609 5.1875 0.0625 C5.1875 0.7225 5.1875 1.3825 5.1875 2.0625 C6.1775 1.7325 7.1675 1.4025 8.1875 1.0625 C8.1875 1.7225 8.1875 2.3825 8.1875 3.0625 C10.1675 3.7225 12.1475 4.3825 14.1875 5.0625 C14.1875 5.7225 14.1875 6.3825 14.1875 7.0625 C14.8475 7.0625 15.5075 7.0625 16.1875 7.0625 C21.10393129 11.15523599 23.22229782 17.61700944 23.875 23.8125 C23.92785156 24.56015625 23.98070312 25.3078125 24.03515625 26.078125 C24.13992629 28.16893148 24.13992629 28.16893148 24.8125 30.5625 C25.83943968 37.40876453 24.29208519 45.64254906 20.6875 51.5 C20.1925 52.015625 19.6975 52.53125 19.1875 53.0625 C18.5275 53.0625 17.8675 53.0625 17.1875 53.0625 C17.1875 53.7225 17.1875 54.3825 17.1875 55.0625 C16.383125 55.35125 15.57875 55.64 14.75 55.9375 C12.0548532 56.79512568 12.0548532 56.79512568 11.1875 59.0625 C-6.37834172 60.44021308 -6.37834172 60.44021308 -12.75 55.3125 C-21.55971401 46.92229618 -23.38447301 38.13132185 -23.9375 26.4140625 C-24.11740771 18.92540426 -22.28989946 13.70117169 -18.8125 7.0625 C-18.1525 7.0625 -17.4925 7.0625 -16.8125 7.0625 C-16.8125 6.4025 -16.8125 5.7425 -16.8125 5.0625 C-16.008125 4.77375 -15.20375 4.485 -14.375 4.1875 C-11.6798532 3.32987432 -11.6798532 3.32987432 -10.8125 1.0625 C-7.19111734 0.03976493 -3.74515244 -0.04512232 0 0 Z " fill="#010101" transform="translate(304.8125,108.9375)"/>
<path d="M0 0 C1.65322266 0.01740234 1.65322266 0.01740234 3.33984375 0.03515625 C4.99693359 0.04869141 4.99693359 0.04869141 6.6875 0.0625 C7.54214844 0.07410156 8.39679688 0.08570312 9.27734375 0.09765625 C9.93734375 1.41765625 10.59734375 2.73765625 11.27734375 4.09765625 C12.26734375 4.09765625 13.25734375 4.09765625 14.27734375 4.09765625 C17.08553642 10.83731866 18.33161867 18.70054816 16.15234375 25.72265625 C13.16653882 29.50467583 10.35125021 29.84835654 5.77734375 30.91015625 C1.69291493 31.12896494 0.41299922 30.65314639 -2.72265625 28.09765625 C-3.39794922 25.29443359 -3.39794922 25.29443359 -3.46484375 21.93359375 C-3.49835938 20.72960937 -3.531875 19.525625 -3.56640625 18.28515625 C-3.57671875 17.02703125 -3.58703125 15.76890625 -3.59765625 14.47265625 C-3.63117188 13.20679687 -3.6646875 11.9409375 -3.69921875 10.63671875 C-3.84034351 4.06030504 -3.84034351 4.06030504 -3.72265625 1.09765625 C-2.72265625 0.09765625 -2.72265625 0.09765625 0 0 Z " fill="#020102" transform="translate(494.72265625,108.90234375)"/>
<path d="M0 0 C1.52431205 2.93974467 2.7964472 5.91589594 4 9 C4.33 9.804375 4.66 10.60875 5 11.4375 C6.70685623 15.81131909 8 19.25879048 8 24 C5.56305726 24.24878997 3.12761611 24.47463404 0.6875 24.6875 C-0.00279297 24.76033203 -0.69308594 24.83316406 -1.40429688 24.90820312 C-6.49117493 25.32596606 -6.49117493 25.32596606 -9 23.71875 C-10.56328101 21.03186077 -9.71092416 18.9083261 -9 16 C-8.34 16 -7.68 16 -7 16 C-6.67 13.69 -6.34 11.38 -6 9 C-5.34 9 -4.68 9 -4 9 C-4.33 8.01 -4.66 7.02 -5 6 C-4.34 5.34 -3.68 4.68 -3 4 C-2.67 3.01 -2.34 2.02 -2 1 C-1.34 0.67 -0.68 0.34 0 0 Z " fill="#060404" transform="translate(106,117)"/>
<path d="M0 0 C3.52259804 3.0529183 4.72906608 5.55173127 6 10 C6.350625 10.825 6.70125 11.65 7.0625 12.5 C8.11836433 15.31563821 8.58530004 18.0279836 9 21 C5.20732808 21.9360342 2.06325435 21.98276252 -1.8125 21.5625 C-2.78832031 21.46066406 -3.76414062 21.35882813 -4.76953125 21.25390625 C-5.50558594 21.17011719 -6.24164063 21.08632812 -7 21 C-7 15.40736444 -3.98503754 3.98503754 0 0 Z " fill="#050304" transform="translate(438,124)"/>
<path d="M0 0 C0 0.66 0 1.32 0 2 C-0.66 2 -1.32 2 -2 2 C-2 4.64 -2 7.28 -2 10 C-2.99 10 -3.98 10 -5 10 C-5.33 11.32 -5.66 12.64 -6 14 C-6.66 14 -7.32 14 -8 14 C-8.66 11.36 -9.32 8.72 -10 6 C-9.34 6 -8.68 6 -8 6 C-7.7525 5.38125 -7.505 4.7625 -7.25 4.125 C-5.4936973 1.13928541 -3.46854079 0 0 0 Z M-10 13 C-9.01 13.99 -8.02 14.98 -7 16 C-7.33 16.99 -7.66 17.98 -8 19 C-8.66 18.34 -9.32 17.68 -10 17 C-10 15.68 -10 14.36 -10 13 Z " fill="#090507" transform="translate(350,125)"/>
<path d="M0 0 C2.6875 0.875 2.6875 0.875 5 2 C5 5.11227195 4.54372951 7.94152152 4 11 C2.68 10.34 1.36 9.68 0 9 C0 8.01 0 7.02 0 6 C-0.66 5.67 -1.32 5.34 -2 5 C-2.33 4.01 -2.66 3.02 -3 2 C-2.01 1.34 -1.02 0.68 0 0 Z " fill="#070505" transform="translate(140,160)"/>
<path d="M0 0 C0.33 0.99 0.66 1.98 1 3 C1.66 3.33 2.32 3.66 3 4 C3 5.32 3 6.64 3 8 C3.66 8.33 4.32 8.66 5 9 C5.625 12.0625 5.625 12.0625 6 15 C4.02 14.34 2.04 13.68 0 13 C-0.66 9.37 -1.32 5.74 -2 2 C-1.34 2 -0.68 2 0 2 C0 1.34 0 0.68 0 0 Z " fill="#0B0809" transform="translate(450,151)"/>
<path d="M0 0 C2.7194239 1.81294927 4.74259377 3.66475218 7 6 C6.67 6.99 6.34 7.98 6 9 C3.96166576 7.7260411 1.96147874 6.38938077 0 5 C0 4.34 0 3.68 0 3 C-0.66 2.67 -1.32 2.34 -2 2 C-1.34 1.34 -0.68 0.68 0 0 Z " fill="#0B0708" transform="translate(164,160)"/>
<path d="M0 0 C1.5625 1.1875 1.5625 1.1875 3 3 C2.6875 5.6875 2.6875 5.6875 2 8 C-1 6 -1 6 -1.8125 4 C-1.874375 3.34 -1.93625 2.68 -2 2 C-1.34 1.34 -0.68 0.68 0 0 Z " fill="#090909" transform="translate(493,161)"/>
<path d="M0 0 C0.66 0.99 1.32 1.98 2 3 C-1.75 6 -1.75 6 -4 6 C-4.33 4.68 -4.66 3.36 -5 2 C-3.35 1.34 -1.7 0.68 0 0 Z " fill="#080606" transform="translate(459,201)"/>
<path d="M0 0 C0.99 0.66 1.98 1.32 3 2 C1.71034824 3.37562854 0.37310707 4.70766393 -1 6 C-1.66 6 -2.32 6 -3 6 C-3.33 5.01 -3.66 4.02 -4 3 C-2.68 2.01 -1.36 1.02 0 0 Z " fill="#090407" transform="translate(286,105)"/>
<path d="M0 0 C1.2375 0.1546875 1.2375 0.1546875 2.5 0.3125 C3.16 1.3025 3.82 2.2925 4.5 3.3125 C1.58517222 4.12217438 0.03886783 4.53095993 -2.8125 3.375 C-3.369375 3.024375 -3.92625 2.67375 -4.5 2.3125 C-2.5 0.3125 -2.5 0.3125 0 0 Z " fill="#0B0708" transform="translate(202.5,223.6875)"/>
<path d="M0 0 C0 1.65 0 3.3 0 5 C-1.32 5 -2.64 5 -4 5 C-4.66 5.66 -5.32 6.32 -6 7 C-6 5.68 -6 4.36 -6 3 C-1.82142857 0 -1.82142857 0 0 0 Z " fill="#0E0B0C" transform="translate(469,207)"/>
<path d="M0 0 C1.0625 1.875 1.0625 1.875 2 4 C1.67 4.66 1.34 5.32 1 6 C-0.32 5.67 -1.64 5.34 -3 5 C-2.625 3.0625 -2.625 3.0625 -2 1 C-1.34 0.67 -0.68 0.34 0 0 Z " fill="#100C0E" transform="translate(460,137)"/>
<path d="M0 0 C0.66 0.33 1.32 0.66 2 1 C2 1.66 2 2.32 2 3 C1.01 3.495 1.01 3.495 0 4 C-0.33 4.99 -0.66 5.98 -1 7 C-1.66 6.67 -2.32 6.34 -3 6 C-3 3 -3 3 -1.5 1.3125 C-0.7575 0.6628125 -0.7575 0.6628125 0 0 Z " fill="#0B0809" transform="translate(456,168)"/>
<path d="M0 0 C0.33 0.66 0.66 1.32 1 2 C1.99 2.33 2.98 2.66 4 3 C3.67 3.99 3.34 4.98 3 6 C1.35 6 -0.3 6 -2 6 C-1.34 4.02 -0.68 2.04 0 0 Z " fill="#0F0D0E" transform="translate(91,153)"/>
<path d="M0 0 C1.32 0.66 2.64 1.32 4 2 C2.625 3.5 2.625 3.5 1 5 C0.34 5 -0.32 5 -1 5 C-0.67 3.35 -0.34 1.7 0 0 Z " fill="#080508" transform="translate(179,164)"/>
<path d="M0 0 C1.67542976 0.28604898 3.34385343 0.61781233 5 1 C4.34 2.32 3.68 3.64 3 5 C1.68 3.68 0.36 2.36 -1 1 C-0.67 0.67 -0.34 0.34 0 0 Z " fill="#0C090A" transform="translate(450,120)"/>
<path d="M0 0 C2 1 2 1 2 1 Z " fill="#000000" transform="translate(368,237)"/>
<path d="" fill="#4F4F4F" transform="translate(0,0)"/>
<path d="" fill="#000000" transform="translate(0,0)"/>
<path d="" fill="#000000" transform="translate(0,0)"/>
<path d="M0 0 C2 1 2 1 2 1 Z " fill="#2A2A2A" transform="translate(306,105)"/>
<path d="" fill="#000000" transform="translate(0,0)"/>
<path d="" fill="#000000" transform="translate(0,0)"/>
<path d="" fill="#000000" transform="translate(0,0)"/>
<path d="" fill="#000000" transform="translate(0,0)"/>
<path d="" fill="#000000" transform="translate(0,0)"/>
<path d="" fill="#000000" transform="translate(0,0)"/>
<path d="" fill="#000000" transform="translate(0,0)"/>
<path d="" fill="#333333" transform="translate(0,0)"/>
<path d="" fill="#1C0000" transform="translate(0,0)"/>
<path d="" fill="#000000" transform="translate(0,0)"/>
<path d="" fill="#000000" transform="translate(0,0)"/>
<path d="" fill="#101010" transform="translate(0,0)"/>
<path d="" fill="#000000" transform="translate(0,0)"/>
<path d="" fill="#0F0F0F" transform="translate(0,0)"/>
<path d="" fill="#000000" transform="translate(0,0)"/>
<path d="" fill="#202020" transform="translate(0,0)"/>
<path d="" fill="#000000" transform="translate(0,0)"/>
<path d="" fill="#000000" transform="translate(0,0)"/>
<path d="" fill="#000000" transform="translate(0,0)"/>
<path d="" fill="#000000" transform="translate(0,0)"/>
<path d="" fill="#000000" transform="translate(0,0)"/>
<path d="" fill="#2A2A2A" transform="translate(0,0)"/>
<path d="" fill="#000000" transform="translate(0,0)"/>
<path d="" fill="#2A2A2A" transform="translate(0,0)"/>
<path d="" fill="#242424" transform="translate(0,0)"/>
<path d="" fill="#000000" transform="translate(0,0)"/>
<path d="" fill="#000000" transform="translate(0,0)"/>
<path d="" fill="#000000" transform="translate(0,0)"/>
<path d="" fill="#000000" transform="translate(0,0)"/>
<path d="" fill="#000000" transform="translate(0,0)"/>
<path d="" fill="#000000" transform="translate(0,0)"/>
<path d="" fill="#2A2A2A" transform="translate(0,0)"/>
<path d="" fill="#000000" transform="translate(0,0)"/>
<path d="" fill="#000000" transform="translate(0,0)"/>
<path d="" fill="#1A1A1A" transform="translate(0,0)"/>
<path d="" fill="#000000" transform="translate(0,0)"/>
<path d="" fill="#2A2A2A" transform="translate(0,0)"/>
<path d="" fill="#000000" transform="translate(0,0)"/>
<path d="" fill="#000000" transform="translate(0,0)"/>
<path d="" fill="#000000" transform="translate(0,0)"/>
<path d="" fill="#202020" transform="translate(0,0)"/>
<path d="" fill="#242424" transform="translate(0,0)"/>
<path d="" fill="#000000" transform="translate(0,0)"/>
<path d="" fill="#000000" transform="translate(0,0)"/>
<path d="" fill="#202020" transform="translate(0,0)"/>
<path d="" fill="#141414" transform="translate(0,0)"/>
<path d="" fill="#2A2A2A" transform="translate(0,0)"/>
<path d="" fill="#1C1C1C" transform="translate(0,0)"/>
<path d="" fill="#000000" transform="translate(0,0)"/>
<path d="" fill="#000000" transform="translate(0,0)"/>
<path d="" fill="#000000" transform="translate(0,0)"/>
<path d="" fill="#211616" transform="translate(0,0)"/>
<path d="" fill="#242424" transform="translate(0,0)"/>
<path d="" fill="#000000" transform="translate(0,0)"/>
<path d="" fill="#2A2A2A" transform="translate(0,0)"/>
<path d="" fill="#000000" transform="translate(0,0)"/>
<path d="" fill="#000000" transform="translate(0,0)"/>
<path d="" fill="#000000" transform="translate(0,0)"/>
<path d="" fill="#000000" transform="translate(0,0)"/>
<path d="" fill="#242424" transform="translate(0,0)"/>
<path d="" fill="#000000" transform="translate(0,0)"/>
<path d="" fill="#400040" transform="translate(0,0)"/>
<path d="" fill="#000000" transform="translate(0,0)"/>
<path d="" fill="#000000" transform="translate(0,0)"/>
<path d="" fill="#000000" transform="translate(0,0)"/>
<path d="" fill="#000000" transform="translate(0,0)"/>
<path d="" fill="#000000" transform="translate(0,0)"/>
<path d="" fill="#000000" transform="translate(0,0)"/>
<path d="" fill="#000000" transform="translate(0,0)"/>
<path d="" fill="#000000" transform="translate(0,0)"/>
<path d="" fill="#333333" transform="translate(0,0)"/>
<path d="" fill="#333333" transform="translate(0,0)"/>
<path d="" fill="#000000" transform="translate(0,0)"/>
<path d="" fill="#333333" transform="translate(0,0)"/>
<path d="" fill="#000000" transform="translate(0,0)"/>
<path d="" fill="#2A2A2A" transform="translate(0,0)"/>
<path d="" fill="#404040" transform="translate(0,0)"/>
<path d="" fill="#000000" transform="translate(0,0)"/>
<path d="" fill="#000000" transform="translate(0,0)"/>
<path d="" fill="#000000" transform="translate(0,0)"/>
<path d="" fill="#2E2E2E" transform="translate(0,0)"/>
<path d="" fill="#202020" transform="translate(0,0)"/>
<path d="" fill="#332233" transform="translate(0,0)"/>
<path d="" fill="#333333" transform="translate(0,0)"/>
<path d="" fill="#333333" transform="translate(0,0)"/>
<path d="" fill="#1A1A1A" transform="translate(0,0)"/>
<path d="" fill="#333333" transform="translate(0,0)"/>
<path d="" fill="#333333" transform="translate(0,0)"/>
<path d="" fill="#000000" transform="translate(0,0)"/>
<path d="" fill="#333333" transform="translate(0,0)"/>
<path d="" fill="#333333" transform="translate(0,0)"/>
<path d="" fill="#2A2A2A" transform="translate(0,0)"/>
<path d="" fill="#404040" transform="translate(0,0)"/>
<path d="" fill="#000000" transform="translate(0,0)"/>
<path d="" fill="#391C39" transform="translate(0,0)"/>
<path d="" fill="#202020" transform="translate(0,0)"/>
<path d="" fill="#222222" transform="translate(0,0)"/>
<path d="" fill="#1A1A1A" transform="translate(0,0)"/>
<path d="" fill="#000000" transform="translate(0,0)"/>
<path d="" fill="#000000" transform="translate(0,0)"/>
<path d="" fill="#2A2A2A" transform="translate(0,0)"/>
<path d="" fill="#404040" transform="translate(0,0)"/>
<path d="" fill="#242424" transform="translate(0,0)"/>
<path d="" fill="#555555" transform="translate(0,0)"/>
<path d="" fill="#000000" transform="translate(0,0)"/>
<path d="" fill="#000000" transform="translate(0,0)"/>
<path d="" fill="#1A1A1A" transform="translate(0,0)"/>
<path d="" fill="#393939" transform="translate(0,0)"/>
<path d="" fill="#000000" transform="translate(0,0)"/>
<path d="" fill="#000000" transform="translate(0,0)"/>
<path d="" fill="#202020" transform="translate(0,0)"/>
<path d="" fill="#333333" transform="translate(0,0)"/>
<path d="" fill="#242424" transform="translate(0,0)"/>
<path d="" fill="#000000" transform="translate(0,0)"/>
<path d="" fill="#000000" transform="translate(0,0)"/>
<path d="" fill="#333333" transform="translate(0,0)"/>
<path d="" fill="#000000" transform="translate(0,0)"/>
<path d="" fill="#000000" transform="translate(0,0)"/>
<path d="" fill="#333333" transform="translate(0,0)"/>
<path d="" fill="#000000" transform="translate(0,0)"/>
<path d="" fill="#1A1A1A" transform="translate(0,0)"/>
<path d="" fill="#000000" transform="translate(0,0)"/>
<path d="" fill="#000000" transform="translate(0,0)"/>
<path d="" fill="#000000" transform="translate(0,0)"/>
<path d="" fill="#000000" transform="translate(0,0)"/>
<path d="" fill="#000000" transform="translate(0,0)"/>
<path d="" fill="#000000" transform="translate(0,0)"/>
<path d="" fill="#000000" transform="translate(0,0)"/>
<path d="" fill="#000000" transform="translate(0,0)"/>
<path d="" fill="#000000" transform="translate(0,0)"/>
<path d="" fill="#242424" transform="translate(0,0)"/>
<path d="" fill="#000000" transform="translate(0,0)"/>
<path d="" fill="#000000" transform="translate(0,0)"/>
<path d="" fill="#202020" transform="translate(0,0)"/>
<path d="" fill="#242424" transform="translate(0,0)"/>
<path d="" fill="#000000" transform="translate(0,0)"/>
<path d="" fill="#000000" transform="translate(0,0)"/>
<path d="" fill="#000000" transform="translate(0,0)"/>
<path d="" fill="#000000" transform="translate(0,0)"/>
<path d="" fill="#2A2A2A" transform="translate(0,0)"/>
<path d="" fill="#000000" transform="translate(0,0)"/>
<path d="" fill="#000000" transform="translate(0,0)"/>
<path d="" fill="#404040" transform="translate(0,0)"/>
<path d="" fill="#000000" transform="translate(0,0)"/>
<path d="" fill="#333333" transform="translate(0,0)"/>
<path d="" fill="#000000" transform="translate(0,0)"/>
<path d="" fill="#404040" transform="translate(0,0)"/>
<path d="" fill="#000000" transform="translate(0,0)"/>
<path d="" fill="#000000" transform="translate(0,0)"/>
<path d="" fill="#222222" transform="translate(0,0)"/>
<path d="" fill="#000000" transform="translate(0,0)"/>
<path d="" fill="#000000" transform="translate(0,0)"/>
<path d="" fill="#000000" transform="translate(0,0)"/>
<path d="" fill="#1C1C1C" transform="translate(0,0)"/>
<path d="" fill="#2A2A2A" transform="translate(0,0)"/>
<path d="" fill="#000000" transform="translate(0,0)"/>
<path d="" fill="#333333" transform="translate(0,0)"/>
<path d="" fill="#000000" transform="translate(0,0)"/>
<path d="" fill="#000000" transform="translate(0,0)"/>
<path d="" fill="#000000" transform="translate(0,0)"/>
<path d="" fill="#000000" transform="translate(0,0)"/>
<path d="" fill="#000000" transform="translate(0,0)"/>
<path d="" fill="#000000" transform="translate(0,0)"/>
<path d="" fill="#000000" transform="translate(0,0)"/>
</svg>
